{"title":"The.Lone.Ranger.2013.CAM.XviD.MP3-Idiocracy","uid":8659249,"size":1865951232,"categoryP":"video","categoryS":"movies","magnet":"?xt=urn:btih:01c2f9f5d23b8d1ceff245bb1257a04ade41ce11&amp;dn=The.Lone.Ranger.2013.CAM.XviD.MP3-Idiocracy&amp;tr=udp%3A%2F%2Ftracker.openbittorrent.com%3A80&amp;tr=udp%3A%2F%2Fopen.demonii.com%3A1337&amp;tr=udp%3A%2F%2Ftracker.coppersurfer.tk%3A6969&amp;tr=udp%3A%2F%2Fexodus.desync.com%3A6969","seeders":2,"leechers":0,"uploader":"Satafakap","files":2,"time":1373284711,"description":"Source: Video - RAVERS - Thanks\n\tAudio - PLAYNOW - Thanks\n\n\nGeneral\n\nComplete name                            : The.Lone.Ranger.2013.CAM.XviD.MP3-\n                                           Idiocracy.avi\nFormat                                   : AVI\nFormat/Info                              : Audio Video Interleave\nFile size                                : 1.72 GiB\nDuration                                 : 2h 20mn\nOverall bit rate                         : 1 755 Kbps\nWriting application                      : VirtualDubMod 1.5.10.3 | www.virtualdub-\n                                           fr.org || (build 2550/release)\nWriting library                          : VirtualDubMod build 2550/release\nSample:\t\t\t\t\t : Yes\n\nVideo\n\nID                                       : 0\nFormat                                   : MPEG-4 Visual\nFormat profile                           : Advanced Simple@L5\nFormat settings, BVOP                    : 2\nFormat settings, QPel                    : No\nFormat settings, GMC                     : No warppoints\nFormat settings, Matrix                  : Default (H.263)\nCodec ID                                 : XVID\nCodec ID/Hint                            : XviD\nDuration                                 : 2h 20mn\nBit rate                                 : 1 618 Kbps\nWidth                                    : 720 pixels\nHeight                                   : 384 pixels\nDisplay aspect ratio                     : 1.85:1\nFrame rate                               : 24.000 fps\nColor space                              : YUV\nChroma subsampling                       : 4:2:0\nBit depth                                : 8 bits\nScan type                                : Progressive\nCompression mode                         : Lossy\nBits/(Pixel*Frame)                       : 0.244\nStream size                              : 1.59 GiB (92%)\nWriting library                          : XviD 64\n\nAudio\n\nID                                       : 1\nFormat                                   : MPEG Audio\nFormat version                           : Version 1\nFormat profile                           : Layer 3\nCodec ID                                 : 55\nCodec ID/Hint                            : MP3\nDuration                                 : 2h 19mn\nBit rate mode                            : Constant\nBit rate                                 : 128 Kbps\nChannel(s)                               : 2 channels\nSampling rate                            : 48.0 KHz\nCompression mode                         : Lossy\nStream size                              : 128 MiB (7%)\nAlignment                                : Aligned on interleaves\nInterleave, duration                     : 42 ms (1.01 video frame)\nInterleave, preload duration             : 504 ms\nWriting library                          : LAME3.99r\nEncoding settings                        : -m s -V 4 -q 2 -lowpass 17 -b 128\n\nThe audio is a little bit out of sync but is watchable.\n","torrent":{"xt":"urn:btih:01c2f9f5d23b8d1ceff245bb1257a04ade41ce11","amp;dn":"The.Lone.Ranger.2013.CAM.XviD.MP3-Idiocracy","amp;tr":["udp%3A%2F%2Ftracker.openbittorrent.com%3A80","udp%3A%2F%2Fopen.demonii.com%3A1337","udp%3A%2F%2Ftracker.coppersurfer.tk%3A6969","udp%3A%2F%2Fexodus.desync.com%3A6969"],"infoHash":"01c2f9f5d23b8d1ceff245bb1257a04ade41ce11","infoHashBuffer":{"type":"Buffer","data":[1,194,249,245,210,59,141,28,239,242,69,187,18,87,160,74,222,65,206,17]},"announce":[],"urlList":[]}}